<?xml version="1.0" encoding="utf-8"?>
<!-- Generator: Adobe Illustrator 23.0.0, SVG Export Plug-In . SVG Version: 6.00 Build 0)  -->
<svg version="1.1" id="Layer_1" xmlns="http://www.w3.org/2000/svg" xmlns:xlink="http://www.w3.org/1999/xlink" x="0px" y="0px"
	 viewBox="0 0 133.75 94.74" style="enable-background:new 0 0 133.75 94.74;" xml:space="preserve">
<style type="text/css">
	.st0{fill:#FFFFFF;}
	.st1{fill:none;stroke:#010101;stroke-width:5.8123;stroke-linecap:round;stroke-linejoin:round;stroke-miterlimit:10;}
	.st2{fill:#010101;}
	.st3{fill:#F5CD48;}
	.st4{fill:#F06936;}
</style>
<g>
	<path class="st0" d="M0.06,22.3c0.44,2.88,3.08,4.91,5.98,4.59c3.2-0.35,6.7,1.83,10.41,6.49c-0.61-0.16-1.25-0.21-1.9-0.15l0,0
		c0,0,0,0,0,0c-0.07,0.01-0.15,0.02-0.22,0.03c-0.01,0-0.02,0-0.03,0h0c0,0,0,0,0,0c-2.97,0.43-5.03,3.18-4.62,6.16
		c0.18,1.3,0.81,2.44,1.71,3.26c4.79,4.55,7.85,10.63,11.08,17.06c4.07,8.08,8.27,16.44,16.3,22.66c6.11,4.73,14.6,7.91,22.73,8.52
		c0.39,0.03,0.78,0.02,1.16-0.04c1.83-0.26,3.44-1.43,4.22-3.17c0.59-1.32,0.62-2.79,0.15-4.09c0.66-1.2,1.86-2.08,3.16-2.61
		c0.06,0.44,0.13,0.91,0.22,1.39c0.5,2.61,2.81,4.48,5.47,4.42c1.14-0.02,3.53,1.59,5.12,2.65c1.11,0.75,2.26,1.52,3.45,2.17
		c0.14,0.1,0.43,0.32,0.63,0.48c0.93,0.71,1.88,1.45,3.03,1.9c1.03,0.59,2.24,0.82,3.45,0.65c0.88-0.12,1.71-0.46,2.42-0.97
		c0.88,0.36,1.86,0.5,2.84,0.36c0.01,0,0.03,0,0.04-0.01c2.33-0.34,4.18-2.14,4.58-4.46c0.08-0.48,0.18-0.94,0.28-1.43
		c0.38-1.86,0.81-3.96,0.51-6.72l0.01-0.01l0.18-0.17c3.08-3.04,7.73-7.64,6.62-14.93c0.12-0.04,0.25-0.08,0.39-0.12
		c2.07-0.64,5.19-1.62,7.93-3.16c3.24-1.82,5-3.92,5.9-5.9c6.17-3.15,11.41-10.22,10.36-17.17c-0.88-5.85-6.11-7.4-8.63-8.14
		c-0.56-0.17-1.09-0.32-1.47-0.47c-1.83-0.72-3.65-1.57-5.57-2.47c-1.7-0.8-3.47-1.62-5.28-2.37c-0.72-0.3-1.58-0.78-2.49-1.3
		c-0.48-0.27-0.99-0.56-1.52-0.84l-2.84-5.46c-0.74-1.42-2.07-2.45-3.64-2.8L85.4,12.36c-7.68-3.3-13.41-4.23-15.86-4.49
		c-3.9-0.88-10.71-2.41-15.28-3.4c-0.49-0.15-0.98-0.27-1.47-0.36c-3.91-1.41-8.29-2.77-13.71-3.35
		c-6.21-0.67-12.85-1.17-19.32-0.26c-1.18,0.17-2.34,0.38-3.44,0.63c-0.37,0.09-0.73,0.21-1.07,0.36C12.7,2.15,10.57,3.6,9.15,5.68
		C8.29,6.95,8,8.52,8.35,10.01c0.35,1.49,1.32,2.77,2.66,3.51c1.73,0.96,3.53,1.63,5.27,2.29c0.58,0.22,1.13,0.42,1.66,0.64
		l0.38,0.25c0.65,0.46,1.24,0.95,1.78,1.45c-4.6-1.99-10-2.85-14.55-2.21c-0.39,0.05-0.78,0.12-1.16,0.2
		C1.52,16.69-0.38,19.42,0.06,22.3z"/>
	<path class="st1" d="M13.9,8.72c2.84,1.58,6.51,2.4,9.46,4.09c6.16,3.54,8.75,11.83,10.84,18.19c3.91,11.91,6.58,24.21,11.83,35.65
		c1.98,4.32,4.19,9.04,7.86,12.23c2.22,1.93,4.81,4.25,7.76,4.83c-0.26-0.3-0.46-0.68-0.62-1.12c0.21,0.24,0.39,0.48,0.54,0.72
		c1.34-5.47,7.3-8.77,12.76-8.37c1.36,1.86,1.25,4.19,1.68,6.4c4.05-0.08,7.98,3.72,11.36,5.52c0.79,0.42,2.33,1.86,3.08,2.09
		c1.09,0.33,0.1,0.54,1.19-0.27c1.3-0.96,2.36-3.31,2.64-4.77c1.23,1.4,1.33,3.32,2.03,4.73c0.43-2.45,1.05-4.23,0.71-6.84
		c-0.08-0.65-0.1-1.54-0.15-2.46c0,0,0,0,0,0c3.32-3.56,7.87-6.72,7.01-12.24c-0.23-1.5,0.1-2.3-0.68-4.31
		c-3.48,2.91-14.9,8.61-15.83,0.44c-0.49-4.29,5.58-8.91,8.99-11.19c2.83-0.94,7.21-1.8,9.05-0.82c2.62,1.4,2.3,8.15,0.94,10.16
		c0.53-0.16,1.01-0.39,1.45-0.67c-0.16,0.17-0.32,0.35-0.49,0.52c3.53-1.12,11.68-3.33,11.59-8.11c4.8-1.29,10.35-7.15,9.57-12.34
		c-0.47-3.13-4.05-3.29-6.72-4.35c-3.69-1.46-7.26-3.35-10.92-4.87c-1.98-0.82-3.93-2.19-5.94-3.08l-3.67-7.04l-17.28-3.9
		c-7.85-3.44-13.52-4.17-15.04-4.31c-3.56-0.8-11.06-2.49-15.83-3.52c-0.47-0.16-0.95-0.27-1.43-0.33
		c-4.23-1.55-8.16-2.72-12.92-3.23c-6.77-0.73-14.29-1.26-20.96,0.26c0.26,0.04,0.51,0.08,0.77,0.12C17.31,6.5,15.13,6.92,13.9,8.72
		z M19.47,6.67c-0.01,0-0.03,0-0.04,0.01c-0.01-0.01-0.03-0.01-0.04-0.02C19.42,6.66,19.44,6.67,19.47,6.67z"/>
	<path class="st2" d="M96.87,79.34c3.32-3.56,7.87-6.72,7.01-12.24c-0.23-1.5,0.1-2.3-0.68-4.31c-3.48,2.91-14.9,8.61-15.83,0.44
		c-0.51-4.47,6.12-9.32,9.42-11.48c1.94-1.27,3.99-2.04,6.08-3.02c-0.1-1.66-1.62-2.31-3.05-2.74c-3.42-1.04-6.34,0.06-9.45,1.5
		c-7.19,3.33-12.22,11.31-12.67,19.1c-0.42,7.25,2.56,13.27,10.37,13.86C91.51,80.7,95.69,80.6,96.87,79.34z"/>
	<path class="st0" d="M17.29,7.07c2.48,1.42,4.77,3.2,6.8,5.04c2.49,2.26,4.83,4.73,6.95,7.37c2.07,2.58,3.93,5.31,5.53,8.19
		c3.96,7.15,6.15,15.09,8.55,22.85c1.21,3.91,2.47,7.8,4.08,11.57c1.67,3.92,3.62,7.53,5.82,11.17c0.13,0.2,0.25,0.41,0.37,0.61
		c0.13,0.21,0.27,0.42,0.41,0.63c1.16-2.22,3.82-3.13,6.12-3.97c2.85-1.04,6.76-2.69,9.79-1.41c2.35,1,3.43,3.72,4.39,5.9
		c1.07,2.43,1.85,4.1,4.55,4.9c1.75,0.51,3.59,0.64,5.28,1.4c1.42,0.64,2.61,1.88,4.1,2.27c0.67-0.93,1.32-2.02,2.34-2.6
		c0.34,0.43,0.89,0.79,1.17,1.3c1.06-2.14-0.66-4.67,0.1-6.58c0.4-1,2.66-1.36,3.79-1.99c2.53-1.41,5.56-4.2,4.74-7.43
		c-3.24,3.48-7.71,5.16-12.37,3.51c-9.57-3.38,0.5-14.36,4.96-17.83c3.26-2.53,7-4.98,11.18-3.1c4.47,2.01,4.8,5.77,2.83,9.79
		c2.22-2.12,5.51-2.36,7.28-4.83c1.2-1.66,1.16-3.95,2.82-5.04c2.74-1.81,6.23-5.53,2.59-8.07c-0.05-0.03-0.1-0.07-0.15-0.1
		c-4.4-2.89-9.87-4.28-14.06-7.65c-0.86-0.69-1.45-1.56-1.98-2.47c-0.68-1.18-1.25-2.43-2.16-3.49c-1.72-2-4.2-3.31-6.59-4.33
		c-6.5-2.77-13.25-5.59-20.05-7.56c-1.85-0.54-3.7-1.02-5.57-1.45c-4.07-0.96-8.17-1.71-12.29-2.38l-0.22-0.14
		C49,8.63,39.31,7.77,29.64,7.22c-1.3-0.07-2.6-0.14-3.9-0.21C23.04,6.88,20.62,6.68,17.29,7.07z"/>
	<path class="st3" d="M31.04,19.49c3.7,1.68,7.04,4.18,10.38,6.56c2.8,1.99,6.47,4.47,8.62,6.91c-3.07,1.98-4.25,7.27-2.72,10.48
		c0.14-1.51,1.41-3.18,2.28-4.45c1.85-2.7,4.79-3.74,6.84-6.02c1.5,0.56,3.17,0.96,4.8,1.2c4.13,0.61,8.23,2.28,12.4,1.95
		c-1.07-1.23-1.73-2.67-2.86-3.87c-1.32-1.4-2.63-2.64-4.14-3.9c-3.71-3.11-7.3-7.85-12.23-9.18c-1.75-0.48-6.11,0.08-5.52,2.71
		c-2.49-4.29-6.41-7.68-10.51-10.34c-2.26-1.47-5.48-3.27-8.73-4.32C39.31,7.77,49,8.63,58.38,11.16l0.22,0.14
		c4.12,0.67,8.23,1.43,12.29,2.38c2.44,1.43,4.92,3.65,6.93,5.55c2.63,2.5,5.49,4.82,8.4,7.02c3.92,2.98,7.87,6.02,12.95,6.09
		c1.24,0.01,4.83,0.05,5.79-0.99c0.2-0.22,0.29-0.51,0.3-0.84c0.53,0.91,0.88,2.32,1.98,2.47c9.71,1.34,15.21,5.44,19.61,8.33
		c0.05,0.03-3.9,2.36-3.85,2.4c-1.14,0.76-4.02-1.87-5.55-1.76c-4.66,0.35-10.14,0.61-14.6-0.85c-1.85,3.13-5.62,6.34-9.18,7.25
		c-2.23,0.57-4.24-0.4-6.37,0.18c2.49-0.96,6.18-3.64,6.94-6.29c-2.17-0.62-4.31-0.91-6.38-2.29c-4.12-2.76-4.83-8.23-8.29-11.56
		c-0.23,1.21,0.7,2.69,0.95,3.93c0.27,1.35,0.25,2.66-0.09,4c-0.58,2.29-1.63,4.51-2.45,6.76c-0.39-0.43-0.89-0.76-1.44-0.97
		c0.25-2.49-1.97-5.2-4.83-3.76c-8.57,4.31-14.94,12.78-17.1,22.05c-0.91,3.92-1.09,7.95-0.75,11.96c-1.32-1.91-2.37-4.79-3.08-6.36
		c-1.48-3.31-2.73-6.74-4.21-10.06c-1.89-4.24-3.55-8.79-4.54-13.33c-0.73-3.37-2.01-6.69-3.45-9.83
		c-2.13-4.66-6.03-8.74-7.82-13.42C30.87,19.4,30.96,19.45,31.04,19.49z"/>
	<path class="st4" d="M22.89,6.55c0.44-0.07,0.88-0.13,1.32-0.18C23.76,6.4,23.32,6.46,22.89,6.55z"/>
	<g>
		<path class="st2" d="M105.81,36.31c-1.66-0.6-3.22-0.49-4.97-0.09c-1.71,0.39-4.07,2.08-5.66,2.15c-2,0.1-3.85-3.96-5.05-5.44
			c-1.95-2.42-3.99-4.73-5.95-7.11c1.15,1.03,3.59,1.84,5.07,2.53c2.6,1.21,4.99,1.7,7.32,3.62c-0.82-1.24-1.76-2.54-2.39-3.89
			c3.14,2.33,7.23,5.6,11.21,5.05c0.3,1.29-1.2,1.27-2.28,1.39C104.14,34.94,105.11,35.47,105.81,36.31z"/>
		<path class="st2" d="M80.24,34.22c-1.33-2.82-2.28-4.45-4.93-6.41c-1-0.74-2.24-1.7-3.31-2.1l7.11,1.72
			c2.92,0.33,7.04,3.39,8.43,6.16c1.58,3.12,0.72,9.68-1.67,12.22c0.39-3.14,0.15-5.33-2.11-7.84
			C82.48,36.56,80.96,35.75,80.24,34.22z"/>
		<path class="st2" d="M75.66,45.64c-1.87-2-3.59-3.32-4.49-5.82c-1.78-4.93-3.4-10.11-3.15-13.28c2.06,4.08,5.24,7.62,8.57,10.67
			c1.36,1.25,2.8,2.43,4.3,3.54c0.48,1.93,0.63,4.39,0.72,5.92c0.23,4.29-1.09,8.13-1.9,12.26C80.46,53.39,79.46,49.72,75.66,45.64z
			"/>
		<path class="st2" d="M5.46,21.47c4.79-0.96,10.9,0.46,14.99,2.98c2.95,1.82,9.78,6.84,12.76,11.35
			c-2.63-8.97-3.23-17.55-11.82-23.61c2.14,1.4,4.23,2.79,6.17,4.32c-1.19-1.48-2.57-2.75-4.2-3.69c-1.06-0.61-2.21-1.1-3.39-1.56
			c0.5,0.3,0.96,0.61,1.41,0.93c-0.47-0.31-0.95-0.62-1.43-0.94c-2.09-0.82-4.25-1.52-6.06-2.53c1.23-1.8,3.4-2.22,4.63-2.2
			c-0.26-0.04-0.52-0.08-0.77-0.12c6.67-1.53,14.19-1,20.96-0.26c4.76,0.51,8.68,1.69,12.92,3.23c0.48,0.06,0.96,0.18,1.43,0.33
			c4.77,1.03,12.27,2.72,15.83,3.52c1.52,0.14,7.19,0.87,15.04,4.31l17.28,3.9l3.67,7.04c2.01,0.89,3.96,2.26,5.94,3.08
			c3.66,1.51,7.24,3.41,10.92,4.87c2.66,1.05,6.25,1.22,6.72,4.35c0.78,5.19-4.78,11.04-9.57,12.34c0.09,4.78-8.06,6.99-11.59,8.11
			c0.17-0.17,0.33-0.35,0.49-0.52c-0.44,0.28-0.92,0.51-1.45,0.67c1.36-2.01,1.68-8.76-0.94-10.16c-2.29-1.22-8.53,0.42-10.8,1.5
			c0.01-0.04,0.03-0.08,0.04-0.13c-2.63,1.78-5.02,4.38-6.32,6.47c-1.43,2.29-6.05,10.38-3.27,12.25c-4.4-0.65-2.71-7.47-1.43-10.34
			c2.3-5.16,6.37-9.3,11.38-11.56c-2.52,0.01-4.98-0.34-6.97-1.36c2.25,0.87,5.54-0.78,7.59-1.76c1.75-0.84,3.17-1.82,4.58-3.08
			c1.22-1.09,2.56-3.18,3.85-3.87c1.7,1.68,4.49,0.89,6.64,0.67c0.09,1.39-0.88,2.5-3.34,1.53c2.05,1.36,4.83,2,7.27,2.11
			c-1.87,3.28-6.07,0.97-8.71,0.85c1.51,1.63,3.81,3.11,5.6,4.45c-1.46-0.43-3.19-0.85-4.74-1.03c-0.42-0.05-0.8-0.04-1.18,0
			c1.68,1.21,4.13,2.32,5.6,2.35c0.4,2.07,0.26,4.58-0.55,6.71c2.53-1.06,5.1-4.1,4.47-6.71c1.83-0.38,3.44-1.69,4.82-2.93
			c-3.79-0.21-4.55-5.24-4.55-5.24c2.32-0.49,6.54-0.81,8.68-1.64c0,0-4.34-2.15-6.33-3.05c-1.46-0.66-4.06-1.73-5.52-2.42
			c-2.03-0.96-4.54-0.86-6.65-1.3c-0.15-0.95-0.57-1.81-0.84-2.72c-0.15-0.23-0.37-0.55-0.67-0.93c-0.06-0.04-0.12-0.11-0.17-0.21
			c-2-2.48-7.06-7.23-17.25-8.76L89.89,27c0,0-6.07-7.12-16.33-10.22c2.51,2.97,5.76,6.98,4.81,6.77c0,0-9.93-8.7-23.49-13
			c3.6,2.09,6.72,6.42,8.3,9.32c-1.91-2.45-5.38-3.66-8.54-4.57c3.56,1.73,6.9,6.11,8.66,8.87c-1.96-2.58-10.07-6.85-13.53-4.44
			c-2.53,1.76,1.22,6.7,3.24,7.75c-3.74-1.77-7.13-4.29-10.89-6.11c1.27,0.62-1.55-5.65-2.12-6.28c-4.21-4.61-10.49-6.56-16.63-7.74
			c2.43,1.09,4.84,3.1,6.3,4.41c6.72,6.02,8.35,15.12,11.61,23.24c3.91,9.76,7.12,22.95,10.6,31.81c0.64-2.47,2.61-6.56,6.36-9.15
			c2.69-1.86,10.83-1.2,15.41,0.3c-0.29,0.21-0.8,0.49-1.43,0.82c-2.48,1.95-6.98,4.14-7.64,5.77c2.91-0.25,11.95,2.7,13.51,4.8
			c2.61,3.52,2.45,3.65,3.29,7.84c1.87-0.43,6.19,1.22,7.67,2.37c0.42-0.99,1.29-2.2,2.15-2.86c-0.81-1.57-2.88-3.31-4.47-3.82
			c1.52-0.51,8.58,1.64,9.47,3.15c0.78,1.32,0.61,4.26,0.81,5.79c0.34,2.61-0.29,4.39-0.71,6.84c-0.7-1.4-0.8-3.33-2.03-4.73
			c-0.28,1.46-1.34,3.82-2.64,4.77c-1.09,0.81-0.1,0.6-1.19,0.27c-0.75-0.23-2.3-1.67-3.08-2.09c-3.37-1.8-7.31-5.6-11.36-5.52
			c-0.43-2.21-0.32-4.53-1.68-6.4c-5.46-0.4-11.42,2.9-12.76,8.37c-0.14-0.25-0.33-0.49-0.54-0.72c0.16,0.43,0.36,0.82,0.62,1.12
			c-0.49-0.1-0.97-0.24-1.44-0.43c0.53,0.55,1.07,1.08,1.6,1.61c-6.75-0.5-14.26-3.11-19.79-7.39
			C28.79,67.25,26.81,49.23,14.99,38.08c6.01,3.69,9.84,8.22,14.25,13.78c1.83,2.3,5.13,7.45,8.73,10.78
			c-0.9-1.53-1.74-3.12-2.51-4.81C30.58,47.13,20.49,19.84,5.46,21.47z"/>
	</g>
</g>
</svg>
