<?xml version="1.0" encoding="utf-8"?>
<!-- Generator: Adobe Illustrator 24.1.1, SVG Export Plug-In . SVG Version: 6.00 Build 0)  -->
<svg version="1.1" id="page" xmlns="http://www.w3.org/2000/svg" xmlns:xlink="http://www.w3.org/1999/xlink" x="0px" y="0px"
	 viewBox="0 0 433.2 301.2" style="enable-background:new 0 0 433.2 301.2;" xml:space="preserve">
<style type="text/css">
	.st0{fill:#1B2F22;}
	.st1{fill:#FFFFFF;}
	.st2{fill:#9ABC88;}
	.st3{fill:#FFFCF3;}
</style>
<g>
	<rect x="72.6" y="269" class="st0" width="253" height="2"/>
</g>
<g>
	<rect x="419" y="269" class="st0" width="14.3" height="2"/>
</g>
<g>
	<g>
		<g>
			<g>
				<polygon class="st0" points="88.9,238.2 91.1,270 125.6,270 123.3,235.9 				"/>
				<path class="st0" d="M126.7,271H90.1l-2.3-33.7l36.4-2.5L126.7,271z M92,269h32.5l-2.2-32L90,239.2L92,269z"/>
			</g>
			<g>
				<polygon class="st0" points="60.3,270 100.2,172.9 68.3,163.3 24.3,270 				"/>
				<path class="st0" d="M61,271H22.8l45-108.9l33.8,10.1L61,271z M25.8,269h33.9l39.2-95.5l-30-9L25.8,269z"/>
			</g>
		</g>
	</g>
</g>
<g>
	<g>
		<g>
			<g>
				<path class="st1" d="M141.7,270h37.6c-0.1-1.5-0.3-3.1-0.4-4.7c-1.2-18.4,0.3-32.2,4.6-41.2c4.3-9,10.8-13.9,19.4-14.4
					c8.5-0.6,15.4,3.3,20.7,11.7c5.4,8.4,8.6,21.8,9.9,40.2c0.2,2.9,0.3,5.7,0.4,8.4h38.1c0-3.6-0.1-7.2-0.4-11
					c-0.8-12.1-2.8-23.2-6-33.4c-3.2-10.1-7.7-18.7-13.5-25.9c-5.8-7.1-13-12.5-21.4-16.2c-8.5-3.6-18.2-5.1-29.3-4.4
					c-11.3,0.8-20.9,3.6-28.9,8.4c-7.9,4.8-14.3,11.1-19.1,18.9c-4.8,7.8-8.2,17-10.2,27.4c-1.9,10.5-2.5,21.8-1.7,33.9
					C141.6,268.6,141.6,269.3,141.7,270z"/>
				<path class="st0" d="M272.9,271h-40l0-1c-0.1-2.7-0.2-5.5-0.4-8.3c-1.3-18.2-4.6-31.6-9.7-39.8c-5.1-8.1-11.7-11.8-19.7-11.2
					c-8.3,0.6-14.4,5.1-18.6,13.9c-4.2,8.9-5.7,22.6-4.5,40.7c0.1,1.6,0.2,3.1,0.4,4.6l0.1,1.1h-39.6l-0.1-1.5c0-0.5-0.1-1-0.1-1.5
					c-0.8-12-0.3-23.5,1.7-34.2c2-10.6,5.5-19.9,10.3-27.8c4.8-7.9,11.3-14.4,19.4-19.3c8.1-4.9,17.9-7.7,29.3-8.5
					c11.1-0.8,21.2,0.7,29.8,4.5c8.5,3.7,15.8,9.3,21.7,16.5c5.8,7.2,10.4,16,13.7,26.2c3.2,10.2,5.3,21.5,6.1,33.6
					c0.3,3.6,0.4,7.3,0.4,11L272.9,271z M234.8,269h36.1c0-3.3-0.1-6.7-0.4-9.9c-0.8-12-2.8-23.1-6-33.1c-3.2-10-7.6-18.6-13.3-25.5
					c-5.7-7-12.8-12.3-21-15.9c-8.3-3.6-18-5-28.9-4.3c-11.1,0.8-20.6,3.5-28.4,8.2c-7.8,4.7-14.1,11-18.7,18.6
					c-4.7,7.6-8.1,16.8-10,27.1c-1.9,10.5-2.5,21.8-1.7,33.7c0,0.4,0.1,0.8,0.1,1.2h35.5c-0.1-1.2-0.2-2.4-0.3-3.6
					c-1.2-18.5,0.3-32.5,4.7-41.7c4.5-9.4,11.3-14.4,20.3-15c0.6,0,1.2-0.1,1.8-0.1c8,0,14.7,4.1,19.8,12.2
					c5.4,8.6,8.7,21.9,10.1,40.7C234.6,264,234.7,266.5,234.8,269z"/>
			</g>
		</g>
	</g>
</g>
<g>
	<g>
		<g>
			<g>
				<polygon class="st0" points="411.7,270 409.2,254.2 391.2,255.4 388.5,215.6 354.1,217.9 356.9,257.7 321.3,260.2 365.5,152.6 
					333.6,143 281.1,270 				"/>
				<path class="st0" d="M412.9,271H279.7L333,141.8l33.9,10.1l-44.1,107.2l33-2.3l-2.7-39.8l36.4-2.5l2.7,39.9l17.8-1.2L412.9,271z
					 M282.6,269h127.9l-2.2-13.7l-18,1.2l-2.7-39.9l-32.4,2.2l2.7,39.8l-38.2,2.6l44.4-108.1l-30-9L282.6,269z"/>
			</g>
		</g>
	</g>
</g>
<path class="st2" d="M217.5,188.8c0.3,4.3-8.4,8.4-19.4,9.3c-11.1,0.9-20.3-1.8-20.7-6.1c-0.3-4.3,8.4-8.4,19.4-9.3
	C207.9,181.8,217.2,184.5,217.5,188.8z"/>
<path class="st2" d="M237,191.2c-0.6,1.7-4.4,2-8.4,0.5c-4-1.4-6.7-4-6.1-5.7c0.6-1.7,4.4-2,8.4-0.5
	C234.9,186.9,237.6,189.4,237,191.2z"/>
<g>
	<rect y="269" class="st0" width="12" height="2"/>
</g>
<g>
	<rect x="50.5" y="285.3" class="st0" width="11.7" height="2"/>
</g>
<g>
	<rect x="79" y="285.3" class="st0" width="21.2" height="2"/>
</g>
<g>
	<rect x="325.5" y="285.3" class="st0" width="9.5" height="2"/>
</g>
<g>
	<rect x="346.4" y="285.3" class="st0" width="41.1" height="2"/>
</g>
<g>
	<rect x="33.1" y="299.2" class="st0" width="10.4" height="2"/>
</g>
<g>
	<rect x="392.6" y="299.2" class="st0" width="10.4" height="2"/>
</g>
<g>
	<path class="st0" d="M186.7,189.9C186.7,189.9,186.7,189.9,186.7,189.9c-1.4,0-2.5-1.1-2.5-2.5c0.1-21.8-6.5-36.1-8.1-38.8
		c-0.3-0.3-0.6-0.8-0.7-1.3c-0.2-0.9,0.1-1.9,0.9-2.5c0.8-0.6,1.8-0.7,2.7-0.3c2.3,1.1,5.9,12.2,5.9,12.3c2,6.4,4.4,16.9,4.4,30.6
		C189.2,188.8,188,189.9,186.7,189.9z"/>
</g>
<g>
	<path class="st0" d="M246.1,161.8c-0.6,0-1.2-0.2-1.7-0.7c-1-1-1-2.5-0.1-3.5c1.7-1.8,6.1-7.6,4.1-11c-2-3.5-10.2-6.7-14.9-7.9
		c-1.3-0.3-2.2-1.7-1.8-3c0.3-1.3,1.7-2.1,3-1.8c1.4,0.4,14.2,3.7,18,10.2c4.2,7.3-4.5,16.5-4.8,16.9
		C247.4,161.5,246.8,161.8,246.1,161.8z"/>
</g>
<g>
	<path class="st0" d="M228.5,70.3c-0.4,0-0.8-0.1-1.2-0.3c-1.2-0.6-1.7-2.2-1-3.4l16.6-31.6c0.6-1.2,2.2-1.7,3.4-1
		c1.2,0.6,1.7,2.2,1,3.4L230.7,69C230.3,69.8,229.4,70.3,228.5,70.3z"/>
</g>
<g>
	<path class="st0" d="M163.7,92.4c-0.1,0-0.2,0-0.3,0l-40.2-4.2c-1.4-0.1-2.4-1.4-2.2-2.7c0.1-1.4,1.4-2.4,2.7-2.2l40.2,4.2
		c1.4,0.1,2.4,1.4,2.2,2.7C166.1,91.4,165,92.4,163.7,92.4z"/>
</g>
<g>
	<path class="st1" d="M248.2,139.8l-66.5,20.6c-1.3,0.4-2.8-0.3-3.2-1.7l-24.3-78.6c-0.2-0.6-0.1-1.3,0.2-1.9l8.6-16.4
		c0.3-0.6,0.9-1.1,1.5-1.3l54-16.7c1.3-0.4,2.8,0.3,3.2,1.7l28.2,91.1C250.3,138,249.5,139.4,248.2,139.8z"/>
	<path class="st0" d="M180.9,161.5c-1.6,0-2.9-1-3.4-2.5l-24.3-78.6c-0.3-0.9-0.2-1.8,0.2-2.7l8.6-16.4c0.4-0.8,1.2-1.5,2.1-1.7
		l54-16.7c0.3-0.1,0.7-0.2,1-0.2c1.6,0,2.9,1,3.4,2.5l28.2,91.1c0.3,0.9,0.2,1.9-0.3,2.7c-0.4,0.8-1.2,1.5-2.1,1.7L182,161.3
		C181.6,161.4,181.3,161.5,180.9,161.5z M219.2,44.7c-0.2,0-0.3,0-0.5,0.1l-54,16.7c-0.4,0.1-0.7,0.4-0.9,0.8l-8.6,16.4
		c-0.2,0.4-0.2,0.8-0.1,1.2l24.3,78.5c0.2,0.8,1.1,1.3,1.9,1l66.5-20.6c0.4-0.1,0.7-0.4,0.9-0.8c0.2-0.4,0.2-0.8,0.1-1.2l-28.2-91.1
		C220.5,45.1,219.9,44.7,219.2,44.7z"/>
</g>
<path class="st0" d="M204.3,91.8c1.2,5-1.1,10.6-5,12.3c-3.9,1.8-8.1-0.9-9.3-6c-1.2-5,1.1-10.6,5-12.3
	C199,84.1,203.2,86.8,204.3,91.8z"/>
<path class="st3" d="M195.1,85.9c-1.8,0.8-3.2,2.4-4.1,4.3c1.8,1.9,4.4,2.5,6.8,1.4c1.8-0.8,3.2-2.4,4.1-4.3
	C200.1,85.4,197.5,84.8,195.1,85.9z"/>
<g>
	<path class="st3" d="M163.5,61.1C163.5,61.1,163.5,61.1,163.5,61.1l-9.3,17.5c0,0.2-0.1,0.3-0.1,0.5l11.3-3.5
		c1.3-0.4,2-1.8,1.6-3.1L163.5,61.1z"/>
	<path class="st0" d="M153,80.5l0.2-1.5c0-0.2,0.1-0.4,0.1-0.7l0.1-0.2l9.4-17.7c0,0,0.1-0.1,0.1-0.1l1.2-1l4,12.9
		c0.3,0.9,0.2,1.8-0.2,2.7c-0.4,0.8-1.2,1.4-2,1.7L153,80.5z M163.3,63.6L156,77.4l9.1-2.8c0.4-0.1,0.7-0.4,0.9-0.7
		c0.2-0.4,0.2-0.8,0.1-1.1L163.3,63.6z"/>
</g>
<path class="st0" d="M206.9,74.8c0.1,1.2-0.7,2.2-1.8,2.3c-1.2,0.1-2.2-0.7-2.3-1.8c-0.1-1.2,0.7-2.2,1.8-2.3
	C205.7,72.8,206.8,73.6,206.9,74.8z"/>
<path class="st0" d="M186.2,82.6c0.1,1.2-0.7,2.2-1.8,2.3c-1.2,0.1-2.2-0.7-2.3-1.8c-0.1-1.2,0.7-2.2,1.8-2.3
	C185,80.6,186.1,81.4,186.2,82.6z"/>
<path class="st1" d="M281.2,16.2L281.2,16.2c-0.1-2.2-1.9-4-4-4v-0.1c2.2,0,4-1.8,4-4h0.1c0,2.2,1.8,4,4,4v0.1
	C283,12.3,281.2,14,281.2,16.2z"/>
<path class="st1" d="M125.6,33.3L125.6,33.3c-0.1-2.2-1.9-4-4-4v-0.1c2.2,0,4-1.8,4-4h0.1c0,2.2,1.8,4,4,4v0.1
	C127.4,29.4,125.6,31.1,125.6,33.3z"/>
<path class="st1" d="M214,16.5h-0.2c0-4.5-3.6-8.1-8.1-8.1V8.1c4.5,0,8.1-3.6,8.1-8.1h0.2c0,4.5,3.6,8.1,8.1,8.1v0.2
	C217.6,8.3,214,12,214,16.5z"/>
<path class="st1" d="M303.6,55.7h-0.1c0-3.3-2.7-5.9-5.9-5.9v-0.1c3.3,0,5.9-2.7,5.9-5.9h0.1c0,3.3,2.7,5.9,5.9,5.9v0.1
	C306.2,49.8,303.6,52.4,303.6,55.7z"/>
<path class="st1" d="M72.6,73.8h-0.1c0-3.3-2.7-5.9-5.9-5.9v-0.1c3.3,0,5.9-2.7,5.9-5.9h0.1c0,3.3,2.7,5.9,5.9,5.9v0.1
	C75.3,67.9,72.6,70.5,72.6,73.8z"/>
</svg>
