<?xml version="1.0" encoding="utf-8"?>
<!-- Generator: Adobe Illustrator 24.1.1, SVG Export Plug-In . SVG Version: 6.00 Build 0)  -->
<svg version="1.1" id="Layer_1" xmlns="http://www.w3.org/2000/svg" xmlns:xlink="http://www.w3.org/1999/xlink" x="0px" y="0px"
	 viewBox="0 0 112.5 86.4" style="enable-background:new 0 0 112.5 86.4;" xml:space="preserve">
<style type="text/css">
	.st0{fill-rule:evenodd;clip-rule:evenodd;fill:url(#SVGID_1_);}
	.st1{fill-rule:evenodd;clip-rule:evenodd;fill:#1B2F22;}
	.st2{fill:#1B2F22;}
	.st3{fill:#6D936D;}
	.st4{fill:none;stroke:#6D936D;stroke-miterlimit:10;}
</style>
<g>
	<g>
		
			<linearGradient id="SVGID_1_" gradientUnits="userSpaceOnUse" x1="28.6185" y1="45.4041" x2="77.5182" y2="97.8426" gradientTransform="matrix(1 0 0 -1 0 97)">
			<stop  offset="0" style="stop-color:#6D936D"/>
			<stop  offset="1" style="stop-color:#BFDD9D"/>
		</linearGradient>
		<path class="st0" d="M33.3,42c0,0,7.1-4.2,14.6-4.8c7.5-0.6,11.7,0.6,11.7,0.6s-2,3.3-7.5,4.6c-5.5,1.3-11.8,0.8-12.3,0.8
			C39.4,43.1,33.3,42,33.3,42L33.3,42z M47.2,51.4c0,0,4.7-3,7.9-3.8c3.1-0.9,6-1,6-1s-2.8,4.1-7.8,5C48.4,52.5,47.2,51.4,47.2,51.4
			L47.2,51.4z M74.7,35.5c0,0,3.3-0.5,4.9-1.5c1.6-1,2.2-2.4,2.2-2.4s-5.1,0.4-7.5,1.1s-2.4,1.5-2.4,1.5l2.2,1.1L74.7,35.5
			L74.7,35.5z M68.7,4.9c0.4,0.2,3.2,5,3.8,12.1s-1.9,12-1.9,12L68,30c0,0-2.1-4.4-2.3-10.6c-0.1-6.1,1.2-9.4,1.2-9.8
			C67,9.4,68.7,4.9,68.7,4.9L68.7,4.9z M33.2,9.3c0.4-0.2,9.8,1,17.1,6.2S62,31.1,62,31.1s-9.1-1.1-13.9-4.4
			c-4.9-3.3-10-7.8-11.2-9.6C35.7,15.1,33.2,9.3,33.2,9.3z"/>
		<path class="st1" d="M77.7,51.4c-0.5-0.5-1-0.9-1.5-1.3c-4.2-3.5-8.9-5.5-13.5-5.6c-0.3,1.9-1.4,3.5-2.9,4.8
			c-1.5,1.2-3.4,2.1-5.4,2.7c-2.5,0.7-5.2,0.8-7.7,0.4l-1.1-0.2l0.7-0.9c0.4-0.5,0.8-0.9,1.3-1.4c4.2-4.3,9-6.5,14-6.7
			c0-0.6-0.1-1.3-0.3-2.1c-0.2-0.9-0.6-1.7-1-2.4c-0.1-0.1-0.1-0.2-0.2-0.3c-2.1,2.5-5.3,4.4-9.8,5.2c-5.6,1.1-13.1,0.5-22.7-2.6
			l-1.3-0.4l1.2-0.7c2.8-1.7,7.7-3.9,13-5.3c4-1.1,8.3-1.7,12-1.3c3,0.3,5.7,1.2,7.6,3.1c0.5-0.8,0.9-1.6,1.2-2.5
			c0.2-0.6,0.3-1.3,0.4-2c-5.6-0.3-11.7-2.9-17-6.8c-6.5-4.8-11.8-11.7-13-18.9c0-0.1,0-0.2,0-0.3l-0.1-0.8h0.8
			c3.5,0.1,6.8,0.7,9.9,1.7C48.7,8.9,54,12.6,57.6,17c3.6,4.3,5.6,9.3,5.5,13.6c0.8,0,1.5-0.1,2.2-0.2c0.1,0,0.2,0,0.2,0
			c0.7-0.1,1.3-0.3,1.9-0.5c-1-2.1-1.6-4.6-1.8-7.3C64.8,15,66.7,6,69.8,0.9L70.3,0l0.6,0.9c1.9,2.9,3.5,7.2,4.3,11.7
			c0.5,3.3,0.6,6.8-0.1,9.8c-0.7,3.1-2.2,5.8-4.8,7.5c-0.3,0.2-0.7,0.4-1.1,0.6c0.7,1.2,1.6,2.2,2.6,3c0.7-0.4,1.4-0.8,2.1-1.1
			c3.8-1.6,8.3-1.4,11.5-0.9l1,0.2l-0.5,0.8c0,0-2.1,3.4-7.3,3.9c-2.7,0.3-4.9-0.2-6.7-1.3c-1.2,1-2.2,2.4-2.8,4.2
			c-0.4-2.7,1.7-5,1.7-5c-1.1-0.9-2-2-2.7-3.3c-0.7,0.2-1.4,0.4-2.2,0.6c-0.1,0-0.2,0-0.3,0c-0.8,0.1-1.6,0.2-2.5,0.2
			c-0.1,0.8-0.3,1.6-0.5,2.3c-0.4,1.1-0.9,2.2-1.5,3.1c0.2,0.2,0.3,0.5,0.5,0.7c0.5,0.8,0.9,1.7,1.2,2.8c0.2,0.8,0.3,1.6,0.3,2.4
			C68.9,43.3,74.4,46.2,77.7,51.4L77.7,51.4z M61.4,44.5L61.4,44.5c-4.5,0.2-9,2.3-12.9,6.3c-0.1,0.1-0.3,0.3-0.4,0.4
			c2,0.2,4,0,6-0.5c1.9-0.5,3.6-1.3,4.9-2.4C60.2,47.2,61,46,61.4,44.5L61.4,44.5z M59.2,37.4L59.2,37.4c-1.7-1.7-4.1-2.6-6.9-2.9
			c-3.5-0.3-7.7,0.3-11.6,1.3c-4.4,1.2-8.5,2.9-11.3,4.4c8.7,2.6,15.6,3.1,20.7,2.1C54.2,41.5,57.3,39.8,59.2,37.4L59.2,37.4z
			 M61.6,30.5L61.6,30.5c0.1-4.1-1.8-8.7-5.2-12.8c-3.5-4.2-8.5-7.8-14.7-9.8C39,7,36.1,6.5,33,6.3c1.3,6.7,6.2,13.1,12.4,17.6
			C50.4,27.7,56.3,30.2,61.6,30.5L61.6,30.5z M68.4,29.4L68.4,29.4c0.3-0.2,0.7-0.3,1-0.5c2.3-1.5,3.6-3.9,4.2-6.7
			c0.7-2.9,0.6-6.1,0.1-9.3c-0.6-3.9-2-7.6-3.5-10.3c-2.7,5-4.2,13-3.5,20C67,25,67.5,27.4,68.4,29.4L68.4,29.4z M72.9,34.3
			L72.9,34.3c1.5,0.7,3.3,1.1,5.4,0.8c3-0.3,4.8-1.6,5.7-2.5c-2.9-0.3-6.6-0.3-9.7,1C73.8,33.8,73.3,34,72.9,34.3z"/>
	</g>
	<g>
		<path class="st2" d="M0.2,74.2L0,73.8v-4.4V69l0.1-2v-0.4v-3.2V63l0.1-0.8L0.1,61l0.2-0.4l0.4-0.2l0.6,0.2l0.5,0.3l0.5,0.5
			l0.3,0.3l0.5,0.6l0.3,0.2l1.8,2l0.4,0.4L6,65.4l0.3,0.3L6.5,66l0.4,0.2L7.3,66l1.2-1.2l0.3-0.3l1.8-1.8l0.3-0.4l0.2-0.2l0.3-0.3
			l0.8-0.9l0.4-0.3l0.6-0.2l0.4,0.2l0.2,0.4v0.4v0.8v0.3v0.9v0.4v2v0.4v6v0.4l0.1,1l-0.2,0.6l-0.4,0.2l-2.4-0.1l-0.4-0.1l-0.2-0.5
			v-0.2v-0.9v-0.4v-0.7v-0.8l-0.1-0.8v-1.1L10,68.5l-0.3,0.1l-0.8,0.8l-0.3,0.2L8,70.3l-0.2,0.2l-0.3,0.3l-0.4,0.3H6.7l-0.4-0.3
			l-0.5-0.5L5.5,70l-0.8-0.8l-0.2-0.3l-0.3-0.3L4,68.5l-0.2,0.2v0.8v0.4v0.7V71l-0.1,0.6l0.1,2.1l-0.2,0.4L3,74.3H2.4L2,74.4H1.2
			l-0.4,0.1L0.2,74.2z"/>
		<path class="st2" d="M26.6,74.4l-0.5-0.2l-0.4-0.3l-0.1-0.4l-0.2-0.4L25,72.8l-0.4-0.2l-0.4,0.1h-0.4h-2l-0.4-0.1l-0.8,0.1
			l-0.4-0.1l-0.4,0.2l-0.4,0.4L19,73.9l-0.4,0.4l-0.5,0.1H17h-0.4h-0.8l-0.4-0.1l-0.1-0.5l0.1-0.4l0.4-0.8l0.1-0.4l0.2-0.3l0.3-0.8
			l0.4-0.6l0.1-0.4l0.2-0.3l0.1-0.4l2-4.3l0.1-0.4l0.2-0.4l0.1-0.4l0.2-0.3l0.8-1.8l0.2-0.3l0.1-0.4l0.2-0.3l0.4-0.3l0.6-0.2
			l0.7,0.2l0.3,0.4l0.4,0.7l0.1,0.4l0.2,0.4l0.1,0.4l1.3,2.8l0.1,0.4l0.4,0.7l0.1,0.3l0.2,0.3l0.1,0.4l0.2,0.4l0.2,0.3l0.8,1.8
			l0.4,0.7l0.3,0.7l0.5,1l0.3,0.7l0.1,0.5l-0.1,0.5l-0.6,0.1h-0.6h-0.4l-0.8,0.1L26.6,74.4z M23.3,69.4l0.3-0.2l0.1-0.4l-0.9-2.2
			l-0.3-0.2l-0.2,0.2l-0.9,2.2v0.4l0.3,0.1h0.5l0.4,0.1H23.3z"/>
		<path class="st2" d="M31.3,70.6v-0.4v-1.6v-0.4v-0.4v-0.4V67l0.1-0.8v-0.4v-4.6l0.2-0.6l0.4-0.2l1.2-0.1h0.4l0.4,0.1h0.4l0.4-0.1
			h0.4l0.4,0.1h1.2h0.6H38l1.1,0.3l0.8,0.3l0.7,0.4l1.1,1.2l0.2,0.3l0.2,0.3l0.4,1.1l0.1,0.4V66l-0.3,1.2l-0.9,1.3l-0.3,0.2L40.8,69
			l-0.2,0.4v0.5l0.2,0.3l0.6,1l0.2,0.4l0.7,1l0.2,0.4l0.2,0.3l0.2,0.4l-0.1,0.4l-0.4,0.2h-0.7h-0.4h-1.6L39,74.1l-0.4-0.4l-0.2-0.3
			L38.2,73L38,72.7L37.6,72l-0.2-0.5l-0.2-0.4L37,70.7l-0.4-0.3l-1.2-0.2L35,70.4l-0.2,0.4v1.3l0.1,0.4v0.4v0.7l-0.2,0.6l-0.6,0.2
			h-0.7h-0.3l-0.6-0.1l-0.4,0.1l-0.6-0.3l-0.2-0.6V70.6z M35.8,67h1h0.4l0.6-0.1l0.4-0.2l0.2-0.2l0.2-0.3l0.2-0.4l0.1-0.6l-0.1-0.5
			l-0.1-0.3l-0.5-0.6l-0.4-0.1h-0.5l-0.6-0.1l-0.8,0.1h-0.4l-0.4,0.2l-0.2,0.4v0.8v0.3v1.2l0.2,0.3l0.4,0.2L35.8,67z"/>
		<path class="st2" d="M47.7,73v-0.4v-1.5v-0.4v-1.6l-0.1-0.5L47.4,68l-1.5-2.4l-0.2-0.4l-0.5-0.6l-0.8-1.4l-0.2-0.3l-0.9-1.4
			L43.1,61l0.1-0.4l0.4-0.2l0.9,0.1l1-0.1l0.3,0.1h0.4l0.5,0.2l0.4,0.4l0.9,1.8l0.2,0.3l0.6,1.1l0.2,0.3l0.2,0.4h0.2l0.3-0.3
			l0.3-0.8l0.2-0.3l0.2-0.4l0.4-0.6L51,62l0.5-0.9l0.4-0.3l0.5-0.2h0.3h0.8l0.4,0.1h0.4h0.8l0.4,0.1l0.1,0.4l-0.2,0.5l-1,1.8
			l-0.2,0.3L51.7,68l-0.3,0.5l-0.1,0.6v1.2l-0.1,0.4v0.4v0.4l-0.1,2.3l-0.2,0.4l-0.4,0.2h-0.4h-0.6h-0.6h-0.4h-0.4l-0.4-0.2
			l-0.2-0.4L47.7,73z"/>
		<path class="st2" d="M65.2,74.5h-0.4l-0.4-0.2L64,74.2l-0.7-0.3l-0.9-0.7l-0.3-0.3l-0.6-1l-0.3-0.7l-0.1-0.4v-0.4v-0.6L61,69.2
			v-0.7l0.2-0.4l0.4-0.2H62h0.4h1.3l0.4,0.2l0.2,0.4v0.4v0.9l0.1,0.6l0.1,0.3l0.3,0.3l0.4,0.2l0.4,0.1l0.6,0.1l0.6-0.1l0.7-0.3
			l0.2-0.3l0.2-0.4l0.1-6.1l-0.2-0.4l-0.4-0.2h-0.6h-0.6l-0.4-0.1l-0.5-0.2l-0.1-0.4v-0.4v-0.3v-0.5v-0.4v-0.4l0.2-0.3l0.4-0.2h0.4
			l0.6-0.1l0.6,0.1l0.4-0.1l1.6,0.1h0.4h1l0.6,0.2l0.2,0.4v3.2l-0.1,0.4v5.3l-0.1,1l-0.3,0.9l-0.3,0.7L70,73.4l-0.3,0.2l-0.3,0.2
			l-1.1,0.5l-0.4,0.2l-0.8,0.1h-0.4l-0.6,0.1h-0.6L65.2,74.5z"/>
		<path class="st2" d="M84.2,74.4l-0.5-0.2l-0.4-0.3l-0.1-0.4L83,73.1l-0.4-0.3l-0.4-0.2l-0.4,0.1h-0.4h-2L79,72.6l-0.8,0.1
			l-0.4-0.1l-0.4,0.2L77,73.2l-0.4,0.7l-0.4,0.4l-0.5,0.1h-1.1h-0.4h-0.8L73,74.3l-0.1-0.5l0.1-0.4l0.4-0.8l0.1-0.4l0.2-0.3l0.3-0.8
			l0.4-0.6l0.1-0.4l0.2-0.3l0.1-0.4l2-4.3l0.1-0.4l0.2-0.4l0.1-0.4l0.2-0.3l0.8-1.8l0.2-0.3l0.1-0.4l0.2-0.3l0.4-0.3l0.6-0.2
			l0.7,0.2l0.3,0.4l0.4,0.7l0.1,0.4l0.2,0.4l0.1,0.4l1.3,2.8l0.1,0.4l0.4,0.7l0.1,0.3l0.2,0.3l0.1,0.4l0.2,0.4l0.2,0.3l0.8,1.8
			l0.4,0.7l0.3,0.7l0.5,1l0.3,0.7l0.1,0.5l-0.1,0.5l-0.6,0.1h-0.6h-0.4L84,74.5L84.2,74.4z M80.9,69.4l0.3-0.2l0.1-0.4l-0.9-2.2
			l-0.3-0.2l-0.2,0.2L79,68.8v0.4l0.3,0.1h0.5l0.4,0.1H80.9z"/>
		<path class="st2" d="M98.9,73.8l-0.5-0.6l-3.1-3.1L95,69.9l-0.3-0.3l-1.4-1.4L93,67.9l-0.3-0.1l-0.1,0.3v0.4v5.1l-0.2,0.6L92,74.4
			h-0.4l-0.8-0.1h-0.4h-0.8l-0.4-0.1L89,73.8v-1.7v-0.4v-3.3l0.1-0.3v-0.8V67v-6.1l0.2-0.4l0.5-0.2l0.6,0.1l0.5,0.2l0.3,0.2l3.9,4
			l0.6,0.4l1.4,1.4l0.3,0.1l0.1-0.3v-3.6v-0.4l0.1-0.8l-0.1-0.3v-0.4l0.2-0.4l0.4-0.2h2.5l0.4,0.2l0.2,0.4l0.1,2.8l-0.1,0.5v2
			l0.1,0.3v7.3l-0.2,0.4l-0.4,0.1l-0.6-0.1l-0.5-0.3L98.9,73.8z"/>
		<path class="st2" d="M109,74.4h-0.4h-0.5l-0.4-0.1l-0.8,0.1h-0.4h-0.4h-1.4l-0.6-0.3l-0.2-0.5v-0.4l0.1-1.4l-0.1-0.4V71v-3.2
			l-0.1-0.4v-1.6v-0.4l-0.1-0.4v-2l-0.1-0.4l0.1-0.8V61l0.2-0.4l0.4-0.2h0.4h0.4h0.4l0.4-0.1l0.4,0.1h1.6h0.4h0.3h0.4h0.4h1.6
			l0.4,0.1h0.4l0.4,0.2l0.2,0.4v1.2v0.4v0.4l-0.2,0.4l-0.4,0.2h-0.4h-2.9l-0.4,0.1h-0.4l-0.4,0.2l-0.2,0.4V65l0.2,0.6l0.4,0.2h1.2
			l0.8,0.1h0.4h1.2l0.5,0.3l0.2,0.6l-0.1,1.8l-0.1,0.4l-0.4,0.2h-0.5h-0.4h-0.8h-0.8l-0.6-0.1h-0.6l-0.4,0.2l-0.2,0.4V71l0.2,0.4
			l0.4,0.2h0.4l0.4,0.1h0.4h0.4l0.7-0.1h1l0.4,0.1h0.5l0.4,0.2l0.2,0.4v2l-0.2,0.4l-0.4,0.2H109L109,74.4z"/>
		<path class="st3" d="M34.1,79.4v7h-1.3v-3h-3.6v3h-1.3v-7h1.3v2.9h3.6v-2.9H34.1z"/>
		<path class="st3" d="M50.2,85.3v1.1H45v-7h5.1v1.1h-3.8v1.8h3.4v1.1h-3.4v1.9H50.2z"/>
		<path class="st3" d="M67.1,86.4v-4.6l-2.3,3.8h-0.6l-2.3-3.8v4.6h-1.2v-7h1.1l2.8,4.6l2.7-4.6h1.1v7H67.1z"/>
		<path class="st3" d="M83.7,79.7c0.5,0.2,0.8,0.5,1,0.9c0.2,0.4,0.4,0.8,0.4,1.3s-0.1,0.9-0.4,1.3c-0.2,0.4-0.6,0.7-1,0.9
			c-0.4,0.2-1,0.3-1.6,0.3h-1.6v2h-1.3v-7h2.9C82.7,79.4,83.2,79.5,83.7,79.7z M83.3,82.9c0.3-0.2,0.4-0.6,0.4-1
			c0-0.4-0.1-0.8-0.4-1c-0.3-0.2-0.7-0.4-1.3-0.4h-1.5v2.8H82C82.6,83.3,83,83.1,83.3,82.9z"/>
	</g>
</g>
<line class="st4" x1="23.5" y1="82.8" x2="10.8" y2="82.8"/>
<line class="st4" x1="102.8" y1="82.8" x2="90.1" y2="82.8"/>
</svg>
