<?xml version="1.0" encoding="utf-8"?>
<!-- Generator: Adobe Illustrator 23.0.1, SVG Export Plug-In . SVG Version: 6.00 Build 0)  -->
<svg version="1.1" id="Layer_1" xmlns="http://www.w3.org/2000/svg" xmlns:xlink="http://www.w3.org/1999/xlink" x="0px" y="0px"
	 viewBox="0 0 476 512.12" style="enable-background:new 0 0 476 512.12;" xml:space="preserve">
<style type="text/css">
	.st0{fill:#9BBD88;}
	.st1{fill:#1B2F22;}
</style>
<path class="st0" d="M0,432.12c2.35-2.81,4.68-5.79,8.98-4.89c4.44,0.93,6.15,3.96,6.3,8.33c0.28,8.31-0.3,16.83,1.35,24.87
	c4.38,21.34,22.31,35.74,44.11,36.65c1.16,0.05,2.33,0.05,3.5,0.05c115.83,0,231.65,0.01,347.48-0.01
	c24.18,0,42.55-14.03,47.76-36.62c0.93-4.01,1.22-8.25,1.22-12.39c0.07-83.16,0.05-166.32,0.05-249.48c0-1.3,0-2.59,0-4.83
	c-1.82,1.23-3.01,1.93-4.07,2.78c-59.19,47.62-118.38,95.23-177.53,142.88c-25.59,20.62-56.86,20.53-82.39-0.07
	c-58.6-47.29-117.28-94.48-175.93-141.71c-1.51-1.21-3.05-2.38-5.56-4.33c0,3.03,0,4.95,0,6.86c0,66.16,0,132.32,0,198.49
	c0,1.67-0.05,3.33-0.01,5c0.1,3.94-1.52,6.97-5.32,8.1c-3.73,1.1-6.87-0.22-8.91-3.71c-0.23-0.39-0.67-0.65-1.02-0.97
	c0-77.33,0-154.67,0-232c2.23-2.18,4.3-4.54,6.71-6.5c14.08-11.45,28.17-22.89,42.44-34.11c3.09-2.43,4.11-5,4.07-8.83
	c-0.19-18.16-0.17-36.31-0.01-54.47c0.04-4.12,0.49-8.35,1.54-12.32C59.7,40.1,75.57,28.56,96.5,28.48
	c26.15-0.1,52.31-0.09,78.46,0.04c3.86,0.02,7-0.71,9.97-3.38c4.32-3.9,9-7.4,13.59-11c24.17-18.93,55.21-18.85,79.23,0.19
	c4.83,3.83,9.47,7.91,14.47,11.48c1.99,1.42,4.72,2.41,7.16,2.52c7.15,0.33,14.35-0.26,21.47,0.29c3.2,0.25,7.04,1.54,9.25,3.72
	c29.86,29.5,59.52,59.21,89.1,88.99c1.74,1.75,2.44,4.54,3.65,6.83c0.95,1.78,1.54,4.02,2.98,5.23
	c7.51,6.33,15.31,12.31,22.87,18.59c9.18,7.62,18.21,15.41,27.3,23.13c0,94,0,188,0,282c-0.32,0.93-0.79,1.84-0.94,2.79
	c-2.77,17.34-11.14,31.54-25.81,40.94c-7.91,5.07-17.44,7.59-26.25,11.26c-123.33,0-246.67,0-370,0c-0.74-0.33-1.44-0.79-2.21-0.96
	c-23.8-5.06-39.68-19.14-47.7-42.04c-1.36-3.89-2.08-8-3.09-12C0,448.79,0,440.46,0,432.12z M315.92,44.16
	c-2.03-0.12-3.49-0.28-4.95-0.28c-71.81-0.01-143.62-0.02-215.43,0.02c-2.64,0-5.37,0.12-7.9,0.78
	c-12.29,3.19-19.19,12.83-19.21,26.93c-0.06,46.82,0.02,93.64-0.11,140.46c-0.01,3.42,1.24,5.48,3.76,7.5
	c44.8,35.98,89.52,72.05,134.31,108.04c20.17,16.21,43.35,16.09,63.48-0.12c44.62-35.94,89.23-71.89,133.92-107.75
	c2.72-2.18,3.91-4.41,3.89-7.96c-0.15-23.49-0.07-46.98-0.09-70.48c0-1.77-0.16-3.54-0.27-5.77c-2.45,0-4.41,0.01-6.38,0
	c-16.16-0.11-32.34,0.31-48.47-0.48c-19.73-0.97-36.06-18.49-36.42-38.32c-0.29-15.66-0.11-31.32-0.13-46.98
	C315.92,47.97,315.92,46.19,315.92,44.16z M331,55.39c0,14.13-0.41,27.79,0.12,41.4c0.51,13.03,11.65,23.21,24.74,23.42
	c9.66,0.15,19.33,0.05,28.99,0.05c3.56,0,7.11,0,10.93,0C373.99,98.45,352.74,77.16,331,55.39z M423.28,150.97
	c0,17.98,0,35.1,0,52.97c11.27-9.08,21.9-17.66,32.86-26.49C445.07,168.52,434.48,159.99,423.28,150.97z M52.84,150.92
	c-11.32,9.13-22.03,17.76-32.96,26.56c11.21,9.01,21.83,17.54,32.96,26.47C52.84,185.83,52.84,168.81,52.84,150.92z M269.88,28.12
	c-16.84-17.17-47.85-16.65-63.58,0C227.5,28.12,248.39,28.12,269.88,28.12z"/>
<path class="st0" d="M119.25,464.79c-2.23-2.09-5.53-3.78-6.2-6.2c-0.67-2.41,0.41-6.53,2.26-8.21c7.38-6.69,15.35-12.74,23.12-19
	c15.41-12.42,30.77-24.91,46.34-37.14c2.15-1.69,5.49-3.1,7.98-2.73c2.18,0.33,5.43,3.28,5.55,5.23c0.17,2.79-1.3,6.62-3.42,8.46
	c-9.81,8.48-20.08,16.43-30.19,24.56c-12.83,10.32-25.64,20.67-38.53,30.92C124.39,462.09,122.25,463.03,119.25,464.79z"/>
<path class="st0" d="M283.96,390.04c2.92,1.57,5.12,2.37,6.85,3.75c22.85,18.3,45.64,36.67,68.41,55.07c4.95,4,5.87,7.65,3.2,11.5
	c-2.79,4.04-7.49,4.41-12.11,0.71c-16.75-13.41-33.44-26.9-50.16-40.35c-6.61-5.32-13.26-10.58-19.82-15.97
	c-2.78-2.28-4.49-5.41-2.53-8.77C279.15,393.69,281.73,392.12,283.96,390.04z"/>
<path class="st1" d="M230.94,143.75c5.85-10.32,11.33-19.98,16.8-29.63c3.12-5.5,6.06-11.1,9.39-16.47
	c8.34-13.47,25.29-17.82,38.86-10.16c13.3,7.5,18.5,24.24,11.56,38.06c-3.28,6.53-7.02,12.85-10.73,19.15
	c-2.61,4.44-6.65,5.64-10.55,3.48c-3.84-2.13-5-6.34-2.66-10.74c2.97-5.58,6.23-11,9.28-16.54c4.39-7.99,2.65-16.03-4.25-20.04
	c-7.2-4.19-14.98-1.68-19.69,6.58c-9.72,17.05-19.32,34.17-29.01,51.24c-4.67,8.23-9.9,8.64-15.69,1.26
	c-4.42-5.63-8.75-11.34-13.17-16.97c-5.87-7.47-13.87-8.96-20.45-3.87c-6.38,4.94-6.93,13.41-1.21,20.82
	c11.19,14.5,22.41,28.98,33.68,43.42c7.18,9.2,18.31,8.4,24.18-1.78c6.98-12.1,13.79-24.3,20.66-36.47
	c1.77-3.13,4.32-5.78,7.92-4.69c2.48,0.75,4.94,3.08,6.34,5.36c0.84,1.38,0.2,4.33-0.74,6.03c-7.4,13.39-14.6,26.93-22.7,39.89
	c-10.02,16.03-32.89,18.11-45.05,3.7c-13.52-16.02-26.27-32.73-38.6-49.69c-9.17-12.61-5.67-29.7,6.84-39.06
	c12.24-9.16,29.56-7.02,39.47,4.97C224.48,135.33,227.37,139.19,230.94,143.75z"/>
<path class="st0" d="M237.74,257.05c-21.66,0-43.32,0-64.98,0c-1.5,0-3.02,0.11-4.49-0.11c-4.12-0.62-7.05-4.09-6.63-8.02
	c0.45-4.18,2.8-6.65,7.15-6.91c1.33-0.08,2.66-0.06,4-0.06c43.49,0,86.97,0,130.46,0c1.33,0,2.67-0.01,4,0.07
	c4.34,0.27,6.69,2.74,7.13,6.93c0.41,3.93-2.53,7.4-6.65,8.01c-1.47,0.22-2.99,0.11-4.49,0.11
	C281.39,257.05,259.56,257.05,237.74,257.05z"/>
<path class="st0" d="M238.14,272.14c14.97,0,29.94-0.02,44.91,0.01c5.91,0.01,9.09,2.67,9.08,7.47c-0.01,4.77-3.22,7.47-9.11,7.47
	c-30.1,0.02-60.21,0.02-90.31,0c-5.79-0.01-8.95-2.87-8.81-7.75c0.13-4.63,3.2-7.18,8.84-7.19
	C207.87,272.12,223,272.14,238.14,272.14z"/>
</svg>
