<?xml version="1.0" encoding="utf-8"?>
<!-- Generator: Adobe Illustrator 24.1.1, SVG Export Plug-In . SVG Version: 6.00 Build 0)  -->
<svg version="1.1" id="Layer_1" xmlns="http://www.w3.org/2000/svg" xmlns:xlink="http://www.w3.org/1999/xlink" x="0px" y="0px"
	 viewBox="0 0 409.9 409.6" style="enable-background:new 0 0 409.9 409.6;" xml:space="preserve">
<style type="text/css">
	.st0{fill:none;}
</style>
<g>
	<path class="st0" d="M312.7,248c-35.7,0.1-64.8,29.4-64.6,65c0.2,35.5,29.2,64.5,64.7,64.5c35.7,0,64.9-29.2,64.8-64.8
		C377.6,277.1,348.3,247.9,312.7,248z M336.9,328.7c-8.4,0.3-16.8,0.3-25.1,0c-8.2-0.3-14.6-6.8-14.8-15c-0.3-11.4-0.3-22.9,0-34.3
		c0.2-8.7,7.3-15.3,15.9-15.3c8.5,0,15.5,6.6,15.9,15.2c0.3,5.7,0,11.4,0,17.6c3.2,0,5.7-0.1,8.2,0c8.6,0.6,15.1,7.7,15,16.1
		C351.9,321.4,345.4,328.4,336.9,328.7z"/>
	<path d="M220,64.3c24.5,0,48.5,0,72.8,0c0,4.9,0,9.6,0,14.2c0.1,10.2,6.5,17.4,15.8,17.5c9.4,0.1,16.1-7.1,16.2-17.5
		c0-4.8,0-9.5,0-14.3c8,0,15.5-0.3,22.9,0.1c4,0.3,8.2,1.4,11.8,3.2c12.5,6.2,18.1,16.8,18.1,30.5c0,29.6,0,59.2,0,88.8
		c0,9.5,7,16.5,16,16.5c8.8,0,15.9-6.9,15.9-16.1c0.1-31.2,0.3-62.4-0.1-93.6C409,68,391.8,44.9,368,36c-9.6-3.5-19.4-4.3-29.5-4.1
		c-4.5,0.1-9,0-13.7,0c0-5.7,0.1-10.9,0-16.1c-0.1-5.7-2.6-10.3-7.5-13.4c-10.5-6.6-23.9,0.5-24.4,13c-0.2,5.4,0,10.8,0,16.1
		c-24.6,0-48.7,0-72.9,0c0-5.5,0.1-10.7,0-15.9c-0.2-7-4.5-12.8-10.8-14.9c-10.3-3.4-20.7,3.8-21.1,14.8c-0.2,5.4,0,10.8,0,16.1
		c-24.3,0-48,0-72,0c0-5,0-9.8,0-14.5C115.9,7.1,109.2,0,99.9,0c-9.3,0-15.8,7.2-15.9,17.4c0,4.8,0,9.5,0,14.7
		c-7.6,0-14.8-0.3-21.9,0.1c-25.3,1.4-44,13.4-55.4,36C3.4,74.5,2.2,81.9,0,88.8c0,88,0,176,0,264c2,6.7,3.3,13.7,6.3,19.9
		c9.8,20.5,26.2,32.5,48.7,36.1c0.6,0.1,1.2,0.5,1.8,0.7c44.3,0,88.5,0,132.8,0c1.2-0.5,2.4-1,3.6-1.6c9.9-4.7,12.3-17.8,4.6-25.6
		c-3.7-3.8-8.3-4.9-13.5-4.9c-39.3,0.1-78.7,0.2-118-0.1c-5.4,0-11.3-1.1-16.2-3.4c-12.8-6-18.1-16.9-18.1-30.8
		c0-81.6,0-163.2,0-244.8c0-1.1,0-2.1,0-3.2c0.8-15,10.3-27.5,24.6-30.2c8.8-1.7,18-1.1,27.4-1.6c0,6-0.1,11.1,0,16.3
		c0.2,7.3,4.4,13.1,10.8,15.3c10.3,3.4,20.6-3.8,21.1-14.8c0.2-5.4,0-10.8,0-16.1c24.4,0,48,0,72,0c0,4.6,0,9,0,13.3
		c0,11.1,6.4,18.5,16.1,18.4c9.7-0.1,15.9-7.3,15.9-18.6C220,73,220,68.7,220,64.3z"/>
	<path d="M382.9,246.6c-27.6-28.8-61.9-37.8-99.8-25.5c-36.9,12-58.9,38.5-65.7,76.9c-7.8,43.5,18.6,89.5,60.1,104.7
		c8.8,3.2,18.2,4.7,27.4,6.9c5.3,0,10.7,0,16,0c2.7-0.5,5.5-1,8.2-1.5c38.6-7.7,64.8-30.2,76.2-67.5
		C416,305.5,408.3,273.1,382.9,246.6z M312.7,377.6c-35.5,0-64.6-29-64.7-64.5c-0.2-35.6,29-64.9,64.6-65
		c35.6-0.1,64.9,29.1,64.9,64.7C377.6,348.4,348.4,377.6,312.7,377.6z"/>
	<path d="M116,168.2c0.1-8.8-7.1-16.1-15.9-16.2C91.3,152,84,159.2,84,168c0,8.6,7,15.8,15.6,16C108.5,184.1,115.8,177,116,168.2z"
		/>
	<path d="M169.7,152c-8.6,0-15.8,7-16,15.6c-0.2,8.8,6.9,16.2,15.7,16.3s16.1-7,16.2-15.8C185.7,159.4,178.5,152.1,169.7,152z"/>
	<path d="M223.2,168.1c0.1,8.6,7.1,15.8,15.8,15.9c8.8,0.1,16.1-7.1,16.2-15.9c0.1-8.8-7.2-16.1-16-16.1
		C230.4,152,223.2,159.3,223.2,168.1z"/>
	<path d="M308.9,152c-8.8-0.1-16.1,7.1-16.1,15.9c0,8.8,7.2,16,16,16c8.8,0,16-7.3,15.9-16.1C324.7,159.2,317.6,152.1,308.9,152z"/>
	<path d="M99.9,253.6c8.8,0,16.1-7.2,16.1-16c0-8.8-7.3-16-16.1-16c-8.8,0.1-16,7.4-15.8,16.2C84.2,246.4,91.3,253.5,99.9,253.6z"/>
	<path d="M169.5,221.6c-8.8,0-16,7.4-15.9,16.1c0.1,8.6,7.2,15.7,15.8,15.8c8.8,0.1,16.1-7.1,16.1-15.9
		C185.6,228.8,178.3,221.6,169.5,221.6z"/>
	<path d="M99.7,323.2c8.8,0.2,16.2-7,16.3-15.8c0.1-8.8-7.1-16.1-15.9-16.2c-8.8,0-16.1,7.2-16.1,16C84,315.8,91.1,323,99.7,323.2z"
		/>
	<path d="M169.5,291.2c-8.8,0.1-16,7.4-15.8,16.2c0.1,8.6,7.3,15.7,15.9,15.7c8.8,0,16-7.2,16-16S178.3,291.1,169.5,291.2z"/>
	<path d="M337,296.9c-2.5-0.2-5,0-8.2,0c0-6.2,0.2-11.9,0-17.6c-0.4-8.7-7.4-15.2-15.9-15.2c-8.5,0-15.7,6.6-15.9,15.3
		c-0.3,11.4-0.3,22.9,0,34.3c0.2,8.2,6.6,14.7,14.8,15c8.4,0.3,16.8,0.3,25.1,0c8.5-0.3,15-7.3,15.1-15.7
		C352.1,304.5,345.6,297.5,337,296.9z"/>
</g>
</svg>
