<?xml version="1.0" encoding="utf-8"?>
<!-- Generator: Adobe Illustrator 24.1.1, SVG Export Plug-In . SVG Version: 6.00 Build 0)  -->
<svg version="1.1" id="Layer_1" xmlns="http://www.w3.org/2000/svg" xmlns:xlink="http://www.w3.org/1999/xlink" x="0px" y="0px"
	 viewBox="0 0 490.5 512" style="enable-background:new 0 0 490.5 512;" xml:space="preserve">
<style type="text/css">
	.st0{fill:none;}
</style>
<g>
	<path class="st0" d="M262,160.4c-4.6-4.1-10.5-6.3-16.6-6.3c-13.8,0-25,11.2-25,25s11.2,25,25,25c6.8,0,13.1-2.7,17.8-7.5
		c1.3-1.4,2.5-2.9,3.5-4.5V166C265.4,163.9,263.9,162,262,160.4z"/>
	<path class="st0" d="M386.6,258.7V30H104v228.7l141.3,110.8L386.6,258.7z M131.3,179c0-19.4,4.9-37.7,13.5-53.7
		c14.9-27.8,41.1-48.8,72.4-56.8c9-2.3,18.4-3.5,28.1-3.5s19.1,1.2,28.1,3.5c31.3,8,57.5,28.9,72.4,56.8c8.6,16,13.5,34.3,13.5,53.7
		v36.8c0,25.5-20.8,46.3-46.3,46.3c-21,0-38.8-14-44.4-33.2c-7.2,3.3-15,5.1-23.2,5.1c-30.3,0-55-24.7-55-55s24.6-55,55-55
		c8.6,0,16.9,2,24.4,5.7h26.9v86.1c0,9,7.3,16.3,16.3,16.3s16.3-7.3,16.3-16.3V179c0-46.3-37.7-84-84-84s-84,37.7-84,84
		s37.7,84,84,84c8.7,0,17.3-1.3,25.5-3.9l2.2,6.9l6.9,21.7c-11.2,3.6-22.8,5.4-34.6,5.4c-28,0-53.7-10.2-73.6-27
		C147,245.1,131.3,213.8,131.3,179z"/>
	<polygon class="st0" points="416.6,180.8 416.6,235.2 451.2,208 	"/>
	<polygon class="st0" points="30,238.8 30,482 460.5,482 460.5,238.8 245.3,407.6 	"/>
	<polygon class="st0" points="74,180.8 39.3,208 74,235.2 	"/>
	<path d="M416.6,142.7V0H74v142.7l-74,58V512h490.5V200.7L416.6,142.7z M416.6,180.8l34.7,27.2l-34.7,27.2V180.8z M104,30h282.6
		v228.7L245.3,369.5L104,258.7V30z M74,180.8v54.4L39.3,208L74,180.8z M460.5,482H30V238.8l215.3,168.8l215.3-168.8V482z"/>
	<path d="M279.9,287.6L273,266l-2.2-6.9c-8.2,2.6-16.8,3.9-25.5,3.9c-46.3,0-84-37.7-84-84s37.7-84,84-84s84,37.7,84,84v36.8
		c0,9-7.3,16.3-16.3,16.3s-16.3-7.3-16.3-16.3v-86.1h-26.9c-7.5-3.7-15.8-5.7-24.4-5.7c-30.3,0-55,24.7-55,55s24.6,55,55,55
		c8.1,0,16-1.8,23.2-5.1c5.7,19.2,23.4,33.2,44.4,33.2c25.5,0,46.3-20.8,46.3-46.3V179c0-19.4-4.9-37.7-13.5-53.7
		c-14.9-27.8-41.1-48.8-72.4-56.8c-9-2.3-18.4-3.5-28.1-3.5s-19.1,1.2-28.1,3.5c-31.3,8-57.5,28.9-72.4,56.8
		c-8.6,16-13.5,34.3-13.5,53.7c0,34.8,15.7,66.1,40.4,87c19.9,16.9,45.6,27,73.6,27C257.1,293,268.7,291.2,279.9,287.6z M266.7,192
		c-1,1.6-2.2,3.1-3.5,4.5c-4.7,4.8-11.1,7.5-17.8,7.5c-13.8,0-25-11.2-25-25s11.2-25,25-25c6.1,0,12.1,2.3,16.6,6.3
		c1.8,1.6,3.4,3.5,4.7,5.6V192z"/>
</g>
</svg>
