<?xml version="1.0" encoding="utf-8"?>
<!-- Generator: Adobe Illustrator 24.1.1, SVG Export Plug-In . SVG Version: 6.00 Build 0)  -->
<svg version="1.1" id="Layer_1" xmlns="http://www.w3.org/2000/svg" xmlns:xlink="http://www.w3.org/1999/xlink" x="0px" y="0px"
	 viewBox="0 0 512 512" style="enable-background:new 0 0 512 512;" xml:space="preserve">
<style type="text/css">
	.st0{fill:none;}
</style>
<g>
	<circle class="st0" cx="255" cy="256" r="85"/>
	<circle cx="394" cy="121" r="30"/>
	<path d="M511.4,192.6c-0.4-26-0.7-53-7.7-80.4c-8-31.5-23.9-57.1-47.1-76c-24-19.6-54.2-31-87.3-33C333.3,0.9,296.2-0.1,256,0
		c-40.2-0.1-77.3,0.9-113.4,3.1c-33.1,2-63.2,13.4-87.3,33c-23.2,18.9-39,44.5-47.1,76c-7,27.4-7.4,54.4-7.7,80.4
		C0.3,211.3,0.1,233.4,0,256c0.1,22.5,0.3,44.7,0.6,63.4c0.4,26.1,0.7,53,7.7,80.4c8,31.5,23.9,57.1,47.1,76
		c24,19.6,54.2,31,87.3,33c36.1,2.2,73.1,3.2,113.3,3.1c1.7,0,3.4,0,5.1,0c38.3,0,73.7-1,108.3-3.1c33.1-2,63.2-13.4,87.3-33
		c16.8-13.7,29.9-31.2,38.9-51.9c4.4-10.1-0.3-21.9-10.4-26.3s-21.9,0.3-26.3,10.4c-6.4,14.8-15.6,27.1-27.5,36.8
		c-17.8,14.5-39.4,22.6-64.4,24.1c-35.2,2.1-71.5,3.1-110.9,3c-39.4,0.1-75.6-0.9-110.9-3c-25-1.5-46.7-9.6-64.4-24.1
		c-16.4-13.4-27.7-31.9-33.6-54.9c-5.8-22.8-6.2-47.4-6.5-71.1c-0.3-18.6-0.5-40.6-0.6-62.8c0.1-22.3,0.3-44.3,0.6-62.9
		c0.3-23.7,0.7-48.2,6.5-71.1c5.9-23,17.2-41.5,33.6-54.9c17.8-14.5,39.4-22.6,64.4-24.1c35.2-2.1,71.5-3.1,110.9-3
		c39.4-0.1,75.6,0.9,110.8,3c25,1.5,46.7,9.6,64.4,24.1c16.4,13.4,27.7,31.9,33.6,54.9c5.8,22.8,6.2,47.4,6.5,71.1
		c0.3,18.6,0.5,40.6,0.6,62.8c-0.1,22.3-0.3,44.3-0.6,62.9c-0.1,11,8.7,20.1,19.7,20.3c11,0.1,20.1-8.7,20.3-19.7
		c0.3-18.7,0.5-40.8,0.6-63.5C511.9,233.4,511.7,211.3,511.4,192.6z"/>
	<path d="M255,131c-68.9,0-125,56.1-125,125s56.1,125,125,125c68.9,0,125-56.1,125-125S323.9,131,255,131z M255,341
		c-46.9,0-85-38.1-85-85s38.1-85,85-85c46.9,0,85,38.1,85,85S301.9,341,255,341z"/>
</g>
</svg>
