<?xml version="1.0" encoding="utf-8"?>
<!-- Generator: Adobe Illustrator 24.1.1, SVG Export Plug-In . SVG Version: 6.00 Build 0)  -->
<svg version="1.1" id="Layer_1" xmlns="http://www.w3.org/2000/svg" xmlns:xlink="http://www.w3.org/1999/xlink" x="0px" y="0px"
	 viewBox="0 0 639.4 611.1" style="enable-background:new 0 0 639.4 611.1;" xml:space="preserve">
<g>
	<path d="M77.5,0C30.7,0,0,30.8,0,71.3c0,39.6,29.7,71.2,75.7,71.2h0.9c47.8,0,77.5-31.7,77.5-71.2C153.3,30.8,124.4,0,77.5,0z"/>
	<rect x="8.1" y="198.8" width="137.1" height="412.4"/>
	<path d="M481.6,189.1c-73.9,0-123.5,69.5-123.5,69.5v-59.8H221v412.4h137.1V380.9c0-12.3,0.9-24.6,4.5-33.5
		c9.9-24.6,32.5-50.1,70.3-50.1c49.6,0,69.4,37.8,69.4,93.2v220.6h137V374.7C639.4,248,571.8,189.1,481.6,189.1z"/>
</g>
</svg>
