<?xml version="1.0" encoding="utf-8"?>
<!-- Generator: Adobe Illustrator 24.1.1, SVG Export Plug-In . SVG Version: 6.00 Build 0)  -->
<svg version="1.1" id="Capa_1" xmlns="http://www.w3.org/2000/svg" xmlns:xlink="http://www.w3.org/1999/xlink" x="0px" y="0px"
	 viewBox="0 0 433.1 512" style="enable-background:new 0 0 433.1 512;" xml:space="preserve">
<style type="text/css">
	.st0{fill:none;}
</style>
<g>
	<path class="st0" d="M216.6,142.9c-36.1,0-65.4,29.4-65.4,65.4c0,36.1,29.4,65.4,65.4,65.4s65.4-29.4,65.4-65.4
		C282,172.3,252.6,142.9,216.6,142.9z"/>
	<path class="st0" d="M216.5,30C113.7,30,30,113.7,30,216.5C30,320,134,411.5,189.9,460.7c8.4,7.4,15.7,13.8,21.7,19.5
		c2.8,2.6,7.1,2.6,9.8,0c6-5.6,13.3-12,21.7-19.5c55.9-49.2,159.9-140.7,159.9-244.1C403.1,113.7,319.4,30,216.5,30z M216.6,303.8
		c-52.6,0-95.4-42.8-95.4-95.4c0-52.6,42.8-95.4,95.4-95.4c52.6,0,95.4,42.8,95.4,95.4C312,261,269.2,303.8,216.6,303.8z"/>
	<path d="M369.7,63.4C328.8,22.5,274.4,0,216.6,0S104.3,22.5,63.4,63.4C22.5,104.3,0,158.7,0,216.5c0,117,110.6,214.3,170.1,266.6
		c8.3,7.3,15.4,13.5,21.1,18.8c7.1,6.7,16.3,10,25.4,10c9.1,0,18.3-3.3,25.4-10c5.7-5.3,12.8-11.6,21.1-18.8
		c59.4-52.3,170.1-149.6,170.1-266.6C433.1,158.7,410.6,104.3,369.7,63.4z M243.2,460.7c-8.4,7.4-15.7,13.8-21.7,19.5
		c-2.8,2.6-7.1,2.6-9.8,0c-6-5.6-13.3-12-21.7-19.5C134,411.5,30,320,30,216.5C30,113.7,113.7,30,216.5,30
		c102.9,0,186.6,83.7,186.6,186.6C403.1,320,299.1,411.5,243.2,460.7z"/>
	<path d="M216.6,112.9c-52.6,0-95.4,42.8-95.4,95.4c0,52.6,42.8,95.4,95.4,95.4c52.6,0,95.4-42.8,95.4-95.4
		C312,155.7,269.2,112.9,216.6,112.9z M216.6,273.8c-36.1,0-65.4-29.4-65.4-65.4c0-36.1,29.4-65.4,65.4-65.4
		c36.1,0,65.4,29.4,65.4,65.4C282,244.4,252.6,273.8,216.6,273.8z"/>
</g>
</svg>
