<?xml version="1.0" encoding="utf-8"?>
<!-- Generator: Adobe Illustrator 24.1.1, SVG Export Plug-In . SVG Version: 6.00 Build 0)  -->
<svg version="1.1" id="Layer_1" xmlns="http://www.w3.org/2000/svg" xmlns:xlink="http://www.w3.org/1999/xlink" x="0px" y="0px"
	 viewBox="0 0 512 512" style="enable-background:new 0 0 512 512;" xml:space="preserve">
<style type="text/css">
	.st0{fill:none;}
</style>
<g>
	<path class="st0" d="M339.1,404.8c-4.8,4.8-12,6-18.1,3.2c-95.2-44.7-172.2-121.8-217-217c-2.9-6.1-1.6-13.3,3.2-18.1l44.8-44.8
		l-20.4-95.3c-32,3.5-60.4,20.3-79.2,47.2C31.2,110.2,26.2,147.4,38.8,182C88.1,317.8,194.2,423.9,330,473.2
		c34.6,12.6,71.9,7.6,102.1-13.6c26.9-18.9,43.7-47.3,47.2-79.2L384,359.9L339.1,404.8z"/>
	<path d="M499.4,351.9l-117.2-25.1c-5.3-1.1-10.8,0.5-14.7,4.3l-42.9,42.9c-80.5-40.5-146.2-106.2-186.6-186.6l42.9-42.9
		c3.8-3.8,5.5-9.4,4.3-14.7L160.1,12.6C158.5,5.3,152,0,144.4,0c-24.3,0-47.2,5.7-68.3,17.1c-19.7,10.6-37,26-50,44.5
		C13.3,80,4.7,101.3,1.5,123.4c-3.4,23.5-1,46.9,7.2,69.6c25.6,70.6,67.4,136.1,120.8,189.5S248.4,477.6,319,503.3
		c16,5.8,32.4,8.7,48.9,8.7c6.9,0,13.8-0.5,20.7-1.5c22-3.2,43.4-11.8,61.8-24.7c18.5-13,33.9-30.2,44.5-50
		c11.3-21,17.1-44,17.1-68.3C512,360,506.7,353.5,499.4,351.9z M432.1,459.6c-30.3,21.2-67.5,26.1-102.1,13.6
		C194.2,423.9,88.1,317.8,38.8,182c-12.6-34.6-7.6-71.9,13.6-102.1C71.2,53,99.6,36.2,131.6,32.7l20.4,95.3l-44.8,44.8
		c-4.8,4.8-6,12-3.2,18.1c44.7,95.2,121.8,172.2,217,217c6.1,2.9,13.3,1.6,18.1-3.2l44.8-44.8l95.3,20.4
		C475.8,412.4,459,440.8,432.1,459.6z"/>
	<path d="M256,32c123.5,0,224,100.5,224,224c0,8.8,7.2,16,16,16c8.8,0,16-7.2,16-16c0-68.4-26.6-132.7-75-181
		C388.7,26.6,324.4,0,256,0c-8.8,0-16,7.2-16,16S247.2,32,256,32z"/>
	<path d="M256,96c88.2,0,160,71.8,160,160c0,8.8,7.2,16,16,16c8.8,0,16-7.2,16-16c0-105.9-86.1-192-192-192c-8.8,0-16,7.2-16,16
		S247.2,96,256,96z"/>
	<path d="M256,160c52.9,0,96,43.1,96,96c0,8.8,7.2,16,16,16c8.8,0,16-7.2,16-16c0-70.6-57.4-128-128-128c-8.8,0-16,7.2-16,16
		S247.2,160,256,160z"/>
</g>
</svg>
