<?xml version="1.0" encoding="utf-8"?>
<!-- Generator: Adobe Illustrator 24.1.1, SVG Export Plug-In . SVG Version: 6.00 Build 0)  -->
<svg version="1.1" id="Layer_1" xmlns="http://www.w3.org/2000/svg" xmlns:xlink="http://www.w3.org/1999/xlink" x="0px" y="0px"
	 viewBox="0 0 512 512" style="enable-background:new 0 0 512 512;" xml:space="preserve">
<style type="text/css">
	.st0{fill:none;}
</style>
<g>
	<path class="st0" d="M356.1,252.1c-1.4-0.9-2.8-1.8-4.3-2.6c-47.8-27.6-95.7-55.1-143.6-82.7c-6.8-3.9-9.3-2.5-9.3,5.3
		c0,27.8,0,55.6,0,83.5c0,15.2,0,30.3,0,45.5c0,13.3,0,26.6,0,40c0,6.2,2.7,7.7,8.3,4.8c0.9-0.5,1.7-1,2.6-1.5
		c47.5-27.5,95.1-54.9,142.6-82.4c1.4-0.8,3-1.6,4.1-2.8C358.8,256.8,359.3,254.3,356.1,252.1z"/>
	<path class="st0" d="M256.5,26.3c-126.4,0-229.8,103.5-229.7,230C26.8,383,129.9,486.1,256.5,486.1
		c126.6,0,229.6-103.1,229.8-229.8C486.4,129.9,382.9,26.3,256.5,26.3z M371.4,280.5c-13.1,8.5-26.9,16-40.5,23.8
		c-36.2,20.9-72.3,41.9-108.6,62.5c-6.3,3.6-13.8,6.7-20.9,7c-17,0.7-29-13.5-29-32.4c-0.1-28.3,0-56.7,0-85c0-28.5,0-57,0-85.5
		c0-16.5,10.2-28.7,26.4-31.4c7.8-1.3,14.7,1.5,21.3,5.3c47.8,27.7,95.8,55.1,143.4,83.1c6.2,3.7,11.8,9.4,15.9,15.4
		C387.9,256.4,384.5,272.1,371.4,280.5z"/>
	<path d="M509,219.4c-8.3-56.6-32.8-105-73.3-145.3C399,37.6,355.3,13.8,304.5,4.7C224.8-9.6,153,8.7,90.8,60.9
		c-46.2,38.9-74.6,88.8-86,148.1C3,218.7,2.3,228.5,1,238.2c-0.2,1.6-0.7,3.2-1,4.8c0,8.7,0,17.3,0,26c1,7.9,1.8,15.8,2.9,23.7
		c9.5,64,38.9,117.1,88.1,159.1c37.5,32,81.1,50.8,129.8,57.9c6,0.9,12.1,1.5,18.2,2.3c11.3,0,22.7,0,34,0c9-1.3,18-2.4,27-3.9
		c41.3-6.9,78.6-23.1,111.7-48.8c51.7-40.1,83.6-92.5,95.9-156.8c1.8-9.4,2.3-19.1,3.5-28.7c0.2-1.6,0.6-3.2,1-4.8
		c0-8.7,0-17.3,0-26C511,235.1,510.2,227.2,509,219.4z M256.5,486.1C129.9,486.1,26.8,383,26.8,256.3
		c-0.1-126.5,103.3-230,229.7-230c126.4,0,229.9,103.6,229.8,230C486.2,383,383.2,486.1,256.5,486.1z"/>
	<path d="M363.4,228c-47.6-28-95.6-55.5-143.4-83.1c-6.6-3.8-13.5-6.7-21.3-5.3c-16.1,2.7-26.3,14.9-26.4,31.4c0,28.5,0,57,0,85.5
		c0,28.3,0,56.7,0,85c0.1,19,12,33.1,29,32.4c7.1-0.3,14.6-3.4,20.9-7c36.4-20.5,72.5-41.6,108.6-62.5c13.6-7.8,27.3-15.3,40.5-23.8
		c13.2-8.5,16.6-24.1,7.9-37.1C375.2,237.4,369.6,231.6,363.4,228z M356.5,259.2c-1.1,1.2-2.7,1.9-4.1,2.8
		c-47.5,27.5-95.1,54.9-142.6,82.4c-0.9,0.5-1.7,1.1-2.6,1.5c-5.5,2.9-8.2,1.4-8.3-4.8c-0.1-13.3,0-26.7,0-40c0-15.2,0-30.3,0-45.5
		c0-27.8,0-55.6,0-83.5c0-7.8,2.6-9.2,9.3-5.3c47.9,27.6,95.7,55.1,143.6,82.7c1.4,0.8,2.9,1.7,4.3,2.6
		C359.3,254.3,358.8,256.8,356.5,259.2z"/>
</g>
</svg>
