<?xml version="1.0" encoding="utf-8"?>
<!-- Generator: Adobe Illustrator 24.1.1, SVG Export Plug-In . SVG Version: 6.00 Build 0)  -->
<svg version="1.1" id="Layer_1" xmlns="http://www.w3.org/2000/svg" xmlns:xlink="http://www.w3.org/1999/xlink" x="0px" y="0px"
	 viewBox="0 0 512.3 488.3" style="enable-background:new 0 0 512.3 488.3;" xml:space="preserve">
<g>
	<path d="M0.3,0C0.2,74,0.1,148,0,222c34.2,0,68.5,0.1,102,0.1c0,21.8,0.5,42.9-0.3,64c-0.6,16.1-3.9,32-10.6,46.9
		c-9.3,20.5-24.4,33.3-47.5,35.2c-5.6,0.5-11.2,0.9-16.9,1.4c0,39.5-0.1,78.9-0.1,118.4c23.8,0.4,46.6-2.7,68.6-10.3
		c54-18.6,89.9-55.7,109.7-109c12.9-34.6,16.9-70.7,16.9-107.4c0.2-85.1,0.2-170.3,0.3-255.4c0-1.8,0-3.5,0-5.8c-7.4,0-14.2,0-21,0
		C134.2,0.1,67.3,0,0.3,0z"/>
	<path d="M293.4,0.3c-0.9,0-1.9,0.3-2.7,0.5c-0.1,73.9-0.2,147.4-0.3,221.6c34.4,0,68.4,0.1,102.6,0.1c0,16.6,0.3,32.6-0.1,48.6
		c-0.5,21-2.6,41.9-11.2,61.5c-9.1,21-24.4,34.1-47.9,36c-5.6,0.5-11.2,0.9-16.8,1.4c0,39.5-0.1,78.8-0.1,118.3
		c15.1,0.5,29.8-1.1,44.3-3.9c42.6-8.3,78.1-28.6,105.1-62.9c27.1-34.3,38.8-74.5,43.6-117.1c0.7-6.2,1.4-12.5,2.1-18.7
		c0.1-95,0.2-190,0.3-285C439.3,0.5,366.3,0.4,293.4,0.3z"/>
</g>
</svg>
