<?xml version="1.0" encoding="utf-8"?>
<!-- Generator: Adobe Illustrator 23.0.0, SVG Export Plug-In . SVG Version: 6.00 Build 0)  -->
<svg version="1.1" id="Capa_1" xmlns="http://www.w3.org/2000/svg" xmlns:xlink="http://www.w3.org/1999/xlink" x="0px" y="0px"
	 width="512px" height="248px" viewBox="0 0 512 248" style="enable-background:new 0 0 512 248;" xml:space="preserve">
<path d="M506.1,109.8C506.1,109.8,506.1,109.8,506.1,109.8L401.6,5.8c-7.8-7.8-20.5-7.8-28.3,0.1c-7.8,7.8-7.8,20.5,0.1,28.3
	l70.2,69.8H20c-11,0-20,9-20,20c0,11,9,20,20,20h423.6l-70.2,69.8c-7.8,7.8-7.9,20.5-0.1,28.3c7.8,7.8,20.5,7.9,28.3,0.1l104.5-104
	c0,0,0,0,0,0C513.9,130.4,514,117.7,506.1,109.8z"/>
</svg>
