<?xml version="1.0" encoding="utf-8"?>
<!-- Generator: Adobe Illustrator 24.1.1, SVG Export Plug-In . SVG Version: 6.00 Build 0)  -->
<svg version="1.1" id="Layer_1" xmlns="http://www.w3.org/2000/svg" xmlns:xlink="http://www.w3.org/1999/xlink" x="0px" y="0px"
	 viewBox="0 0 122.9 107.5" style="enable-background:new 0 0 122.9 107.5;" xml:space="preserve">
<style type="text/css">
	.st0{fill:none;}
</style>
<g>
	<polygon class="st0" points="42.6,57.2 105.7,57.2 114,23.7 33.7,23.7 	"/>
	<ellipse transform="matrix(0.9732 -0.2298 0.2298 0.9732 -21.0509 15.0026)" cx="53.9" cy="97.9" rx="9.6" ry="9.6"/>
	<circle cx="96" cy="97.9" r="9.6"/>
	<path d="M119,15.9H31.5l-1-4c-0.1-0.1-0.1-0.2-0.1-0.3C29.2,7.3,27,4.4,24,2.5c-2.7-1.7-5.9-2.4-9.5-2.5c-0.1,0-0.3,0-0.4,0H3.9
		C1.8,0,0,1.8,0,3.9c0,2.2,1.8,4,3.9,4h10.2c0.1,0,0.2,0,0.3,0c2.2,0,4.1,0.4,5.5,1.3c1.4,0.8,2.4,2.3,3,4.5
		c0.1,0.1,0.1,0.1,0.1,0.2l13.4,50.7c2.2,8.7,4.4,13.5,8.6,16.3c4.1,2.7,9.2,2.9,17.5,2.8h45.2c2.1,0,3.9-1.7,3.9-3.9
		c0-2.1-1.7-3.9-3.9-3.9H62.5h-0.1c-6.7,0.1-10.7,0-13-1.5c-1.9-1.3-3.3-4.1-4.7-9.3h64c1.8,0,3.4-1.2,3.8-3L122.7,21
		c0.1-0.4,0.2-0.8,0.2-1.2C122.9,17.7,121.2,15.9,119,15.9z M105.7,57.2H42.6l-8.9-33.5H114L105.7,57.2z"/>
</g>
</svg>
