<?xml version="1.0" encoding="utf-8"?>
<!-- Generator: Adobe Illustrator 24.1.1, SVG Export Plug-In . SVG Version: 6.00 Build 0)  -->
<svg version="1.1" id="Layer_1" xmlns="http://www.w3.org/2000/svg" xmlns:xlink="http://www.w3.org/1999/xlink" x="0px" y="0px"
	 viewBox="0 0 10 11" style="enable-background:new 0 0 10 11;" xml:space="preserve">
<style type="text/css">
	.st0{fill:none;}
</style>
<g>
	<circle class="st0" cx="5" cy="3" r="2"/>
	<path d="M8,3c0-1.7-1.3-3-3-3S2,1.3,2,3s1.3,3,3,3S8,4.7,8,3z M5,5C3.9,5,3,4.1,3,3s0.9-2,2-2s2,0.9,2,2S6.1,5,5,5z"/>
	<path d="M5,6c-2.8,0-5,2.2-5,5h1c0-2.2,1.8-4,4-4s4,1.8,4,4h1C10,8.2,7.8,6,5,6z"/>
</g>
</svg>
